<svg width="212" height="38" viewBox="0 0 212 38" fill="none" xmlns="http://www.w3.org/2000/svg">
<path d="M22.7118 30.184H8.74384L6.34384 37H0.631836L12.5838 3.59201H18.9198L30.8718 37H25.1118L22.7118 30.184ZM21.1758 25.72L15.7518 10.216L10.2798 25.72H21.1758Z" fill="#111111"/>
<path d="M60.3086 23.128C60.3086 24.12 60.2446 25.016 60.1166 25.816H39.9086C40.0686 27.928 40.8526 29.624 42.2606 30.904C43.6686 32.184 45.3966 32.824 47.4446 32.824C50.3886 32.824 52.4686 31.592 53.6846 29.128H59.5886C58.7886 31.56 57.3326 33.56 55.2206 35.128C53.1406 36.664 50.5486 37.432 47.4446 37.432C44.9166 37.432 42.6446 36.872 40.6286 35.752C38.6446 34.6 37.0766 33 35.9246 30.952C34.8046 28.872 34.2446 26.472 34.2446 23.752C34.2446 21.032 34.7886 18.648 35.8766 16.6C36.9966 14.52 38.5486 12.92 40.5326 11.8C42.5486 10.68 44.8526 10.12 47.4446 10.12C49.9406 10.12 52.1646 10.664 54.1166 11.752C56.0686 12.84 57.5886 14.376 58.6766 16.36C59.7646 18.312 60.3086 20.568 60.3086 23.128ZM54.5966 21.4C54.5646 19.384 53.8446 17.768 52.4366 16.552C51.0286 15.336 49.2846 14.728 47.2046 14.728C45.3166 14.728 43.7006 15.336 42.3566 16.552C41.0126 17.736 40.2126 19.352 39.9566 21.4H54.5966Z" fill="#111111"/>
<path d="M71.1656 14.392C71.9656 13.048 73.0216 12.008 74.3336 11.272C75.6776 10.504 77.2616 10.12 79.0856 10.12V15.784H77.6936C75.5496 15.784 73.9176 16.328 72.7976 17.416C71.7096 18.504 71.1656 20.392 71.1656 23.08V37H65.6936V10.552H71.1656V14.392Z" fill="#111111"/>
<path d="M86.8995 7.04801C85.9075 7.04801 85.0755 6.71201 84.4035 6.04001C83.7315 5.36801 83.3955 4.53601 83.3955 3.54401C83.3955 2.55201 83.7315 1.72001 84.4035 1.04801C85.0755 0.376009 85.9075 0.0400085 86.8995 0.0400085C87.8595 0.0400085 88.6755 0.376009 89.3475 1.04801C90.0195 1.72001 90.3555 2.55201 90.3555 3.54401C90.3555 4.53601 90.0195 5.36801 89.3475 6.04001C88.6755 6.71201 87.8595 7.04801 86.8995 7.04801ZM89.5875 10.552V37H84.1155V10.552H89.5875Z" fill="#111111"/>
<path d="M108.244 37.432C105.748 37.432 103.492 36.872 101.476 35.752C99.4597 34.6 97.8757 33 96.7237 30.952C95.5717 28.872 94.9957 26.472 94.9957 23.752C94.9957 21.064 95.5877 18.68 96.7717 16.6C97.9557 14.52 99.5717 12.92 101.62 11.8C103.668 10.68 105.956 10.12 108.484 10.12C111.012 10.12 113.3 10.68 115.348 11.8C117.396 12.92 119.012 14.52 120.196 16.6C121.38 18.68 121.972 21.064 121.972 23.752C121.972 26.44 121.364 28.824 120.148 30.904C118.932 32.984 117.268 34.6 115.156 35.752C113.076 36.872 110.772 37.432 108.244 37.432ZM108.244 32.68C109.652 32.68 110.964 32.344 112.18 31.672C113.428 31 114.436 29.992 115.204 28.648C115.972 27.304 116.356 25.672 116.356 23.752C116.356 21.832 115.988 20.216 115.252 18.904C114.516 17.56 113.54 16.552 112.324 15.88C111.108 15.208 109.796 14.872 108.388 14.872C106.98 14.872 105.668 15.208 104.452 15.88C103.268 16.552 102.324 17.56 101.62 18.904C100.916 20.216 100.564 21.832 100.564 23.752C100.564 26.6 101.284 28.808 102.724 30.376C104.196 31.912 106.036 32.68 108.244 32.68Z" fill="#111111"/>
<path d="M140.725 10.12C142.805 10.12 144.661 10.552 146.293 11.416C147.957 12.28 149.253 13.56 150.181 15.256C151.109 16.952 151.573 19 151.573 21.4V37H146.149V22.216C146.149 19.848 145.557 18.04 144.373 16.792C143.189 15.512 141.573 14.872 139.525 14.872C137.477 14.872 135.845 15.512 134.629 16.792C133.445 18.04 132.853 19.848 132.853 22.216V37H127.381V10.552H132.853V13.576C133.749 12.488 134.885 11.64 136.261 11.032C137.669 10.424 139.157 10.12 140.725 10.12Z" fill="#111111"/>
<path d="M186.334 20.344L196.702 37H190.558L183.022 24.904L175.966 37H169.87L180.238 20.344L169.822 3.64001H175.966L183.55 15.832L190.654 3.64001H196.75L186.334 20.344Z" fill="#111111"/>
<path d="M201.269 7.00001V2.00801H211.253V37H205.733V7.00001H201.269Z" fill="#111111"/>
</svg>
