<svg width="20" height="20" viewBox="0 0 20 20" fill="none" xmlns="http://www.w3.org/2000/svg">
<path d="M2.56876 5.02859C0.928348 6.66986 0.00471453 8.8944 1.79983e-05 11.2153C-0.00467854 13.5362 0.909944 15.7645 2.54371 17.4124C4.38558 13.1508 7.66837 9.59105 11.7656 7.47276C8.22916 10.4661 5.84193 14.5954 5.01206 19.1547C8.2698 20.6964 12.2793 20.1323 14.9732 17.4375C18.7196 13.6897 19.7721 3.47434 19.9976 0.666676C20.0055 0.577463 19.9937 0.487613 19.9631 0.403448C19.9325 0.319283 19.8838 0.242848 19.8205 0.179521C19.7572 0.116194 19.6808 0.0675144 19.5967 0.0369068C19.5126 0.00629917 19.4227 -0.00549239 19.3336 0.00236159C16.5269 0.227978 6.31516 1.28085 2.56876 5.02859Z" fill="#EA2C0A"/>
</svg>
